# xmcd
#
# Track frame offsets:
#	183
#	29733
#	77408
#	89498
#	102558
#	117085
#	150558
#	224165
#	245900
#
# Disc length: 3548 seconds
#
# Revision: 0
# Processed by: cddbd v1.5PL3 Copyright (c) Steve Scherf et al.
# Submitted via: dBpowerAMP V4.0
#
DISCID=7e0dda09
DTITLE=Canned Heat - The Owl Under The Moon
DYEAR=1900
DGENRE=Blues
TTITLE0=You Know I Love You
TTITLE1=First Time Around
TTITLE2=Rollin' And Tumblin'
TTITLE3=Bullfrog Blues
TTITLE4=Refeer Blues
TTITLE5=Future Blues
TTITLE6=So Sad
TTITLE7=Let's Work Together
TTITLE8=Too Many Drivers
EXTD=
EXTT0=
EXTT1=
EXTT2=
EXTT3=
EXTT4=
EXTT5=
EXTT6=
EXTT7=
EXTT8=
PLAYORDER=
